<svg width="36" height="36" viewBox="0 0 36 36" fill="none" xmlns="http://www.w3.org/2000/svg">
<g clip-path="url(#clip0_21_17)">
<g filter="url(#filter0_d_21_17)">
<path d="M6.18146 13.1086C6.18146 12.2747 6.62089 11.5025 7.33782 11.0766L16.7015 5.51341C17.4456 5.0713 18.3719 5.0713 19.1161 5.51341L28.4798 11.0766C29.1967 11.5025 29.6361 12.2747 29.6361 13.1086V23.4824C29.6361 24.3216 29.1911 25.0979 28.467 25.522L19.1033 31.0058C18.3656 31.4379 17.452 31.4379 16.7143 31.0058L7.35061 25.522C6.62644 25.0979 6.18146 24.3216 6.18146 23.4824V13.1086Z" fill="#1C2732"/>
<path fill-rule="evenodd" clip-rule="evenodd" d="M18.002 7.38917C17.9448 7.35516 17.8735 7.35516 17.8163 7.38917L8.45261 12.9523C8.39746 12.9851 8.36366 13.0445 8.36366 13.1086V23.4824C8.36366 23.5469 8.39789 23.6067 8.45359 23.6393L17.8173 29.1231C17.874 29.1563 17.9443 29.1563 18.001 29.1231L27.3647 23.6393C27.4204 23.6067 27.4547 23.5469 27.4547 23.4824V13.1086C27.4547 13.0445 27.4209 12.9851 27.3657 12.9523L18.002 7.38917ZM15.5875 3.63766C17.0185 2.78745 18.7998 2.78745 20.2309 3.63766L29.5946 9.20081C30.9733 10.0199 31.8183 11.5049 31.8183 13.1086V23.4824C31.8183 25.0963 30.9626 26.5891 29.57 27.4047L20.2063 32.8885C18.7876 33.7194 17.0308 33.7194 15.6121 32.8885L6.24837 27.4047C4.85574 26.5891 4 25.0963 4 23.4824V13.1086C4 11.5049 4.84506 10.0199 6.22377 9.20081L15.5875 3.63766Z" fill="url(#paint0_linear_21_17)"/>
<path d="M18.0004 19.6083C18.0004 18.7466 18.4693 17.9532 19.2241 17.5377L29.0101 12.1503C29.3736 11.9502 29.8186 12.2132 29.8186 12.6282V23.459C29.8186 24.3 29.3718 25.0776 28.6452 25.5011L18.0277 31.6894C18.0156 31.6965 18.0004 31.6877 18.0004 31.6737V19.9636L18.0004 19.6083Z" fill="url(#paint1_linear_21_17)"/>
<path fill-rule="evenodd" clip-rule="evenodd" d="M27.6364 15.397L20.2759 19.449C20.2178 19.481 20.1818 19.542 20.1818 19.6083V27.9083L27.5461 23.616C27.602 23.5835 27.6364 23.5237 27.6364 23.459V15.397ZM27.9575 10.239C29.7751 9.23834 32 10.5533 32 12.6281V23.459C32 25.0762 31.1407 26.5717 29.7434 27.3861L19.126 33.5744C17.6592 34.4293 15.8181 33.3712 15.8181 31.6737V19.6083C15.8181 17.9512 16.7198 16.4255 18.1715 15.6263L27.9575 10.239Z" fill="url(#paint2_linear_21_17)"/>
</g>
</g>
<defs>
<filter id="filter0_d_21_17" x="2.1" y="1.3" width="32" height="34.877" filterUnits="userSpaceOnUse" color-interpolation-filters="sRGB">
<feFlood flood-opacity="0" result="BackgroundImageFix"/>
<feColorMatrix in="SourceAlpha" type="matrix" values="0 0 0 0 0 0 0 0 0 0 0 0 0 0 0 0 0 0 127 0" result="hardAlpha"/>
<feOffset dx="0.1" dy="0.3"/>
<feGaussianBlur stdDeviation="1"/>
<feComposite in2="hardAlpha" operator="out"/>
<feColorMatrix type="matrix" values="0 0 0 0 0 0 0 0 0 0 0 0 0 0 0 0 0 0 0.4 0"/>
<feBlend mode="normal" in2="BackgroundImageFix" result="effect1_dropShadow_21_17"/>
<feBlend mode="normal" in="SourceGraphic" in2="effect1_dropShadow_21_17" result="shape"/>
</filter>
<linearGradient id="paint0_linear_21_17" x1="11.5721" y1="21.2169" x2="20.4561" y2="9.99315" gradientUnits="userSpaceOnUse">
<stop stop-color="#00324B"/>
<stop offset="1" stop-color="#2FC781"/>
<stop offset="1" stop-color="#2FC781"/>
</linearGradient>
<linearGradient id="paint1_linear_21_17" x1="23.8046" y1="41.251" x2="42.155" y2="31.6384" gradientUnits="userSpaceOnUse">
<stop stop-color="#202224"/>
<stop offset="0.9999" stop-color="#213B63"/>
<stop offset="1" stop-color="#CFFCFC"/>
<stop offset="1" stop-color="#CFFCFC"/>
</linearGradient>
<linearGradient id="paint2_linear_21_17" x1="28.8959" y1="-6.64585" x2="7.57882" y2="9.66186" gradientUnits="userSpaceOnUse">
<stop stop-color="#2EC781"/>
<stop offset="1" stop-color="#0A68FF"/>
</linearGradient>
<clipPath id="clip0_21_17">
<rect width="36" height="36" fill="white"/>
</clipPath>
</defs>
</svg>
