<svg width="52" height="53" viewBox="0 0 52 53" fill="none" xmlns="http://www.w3.org/2000/svg">
<g filter="url(#filter0_d_59_2)">
<path d="M10.826 19.0953C10.826 18.015 11.3953 17.0147 12.324 16.4629L24.4543 9.25603C25.4183 8.68329 26.6183 8.68329 27.5823 9.25603L39.7126 16.4629C40.6413 17.0147 41.2106 18.015 41.2106 19.0953V32.5341C41.2106 33.6213 40.6341 34.6269 39.696 35.1764L27.5657 42.2804C26.61 42.8401 25.4266 42.8401 24.4709 42.2804L12.3406 35.1764C11.4025 34.6269 10.826 33.6213 10.826 32.5341V19.0953Z" fill="#D2ECFC"/>
<path fill-rule="evenodd" clip-rule="evenodd" d="M26.1391 11.686C26.0649 11.6419 25.9726 11.6419 25.8985 11.686L13.7682 18.8928C13.6967 18.9353 13.6529 19.0122 13.6529 19.0953V32.5341C13.6529 32.6177 13.6973 32.6951 13.7695 32.7374L25.8997 39.8414C25.9733 39.8845 26.0643 39.8845 26.1378 39.8414L38.2681 32.7374C38.3403 32.6951 38.3846 32.6177 38.3846 32.5341V19.0953C38.3846 19.0122 38.3408 18.9353 38.2694 18.8928L26.1391 11.686ZM23.0111 6.82606C24.865 5.72464 27.1726 5.72465 29.0265 6.82607L41.1567 14.0329C42.9428 15.094 44.0375 17.0178 44.0375 19.0953V32.5341C44.0375 34.6248 42.929 36.5588 41.1249 37.6153L28.9946 44.7194C27.1567 45.7958 24.8808 45.7958 23.043 44.7194L10.9127 37.6153C9.10858 36.5588 8 34.6248 8 32.5341V19.0953C8 17.0178 9.09474 15.094 10.8808 14.0329L23.0111 6.82606Z" fill="url(#paint0_linear_59_2)"/>
<path d="M26.1369 27.5154C26.1369 26.3991 26.7444 25.3713 27.7222 24.833L40.3996 17.8539C40.8705 17.5946 41.447 17.9353 41.447 18.4729V32.5038C41.447 33.5933 40.8681 34.6007 39.9269 35.1493L26.1723 43.166C26.1566 43.1751 26.1369 43.1638 26.1369 43.1456L26.1369 27.9757L26.1369 27.5154Z" fill="url(#paint1_linear_59_2)"/>
<path fill-rule="evenodd" clip-rule="evenodd" d="M38.62 22.0598L29.0848 27.309C29.0096 27.3504 28.9629 27.4295 28.9629 27.5154V38.2677L38.5031 32.7073C38.5755 32.6651 38.62 32.5876 38.62 32.5038V22.0598ZM39.036 15.3778C41.3906 14.0815 44.273 15.785 44.273 18.4729V32.5038C44.273 34.5989 43.1597 36.5362 41.3496 37.5912L27.5951 45.6079C25.695 46.7154 23.3099 45.3447 23.3099 43.1456V27.5154C23.3099 25.3687 24.4781 23.3922 26.3586 22.3569L39.036 15.3778Z" fill="url(#paint2_linear_59_2)"/>
</g>
<defs>
<filter id="filter0_d_59_2" x="6" y="5" width="44.2729" height="47.9999" filterUnits="userSpaceOnUse" color-interpolation-filters="sRGB">
<feFlood flood-opacity="0" result="BackgroundImageFix"/>
<feColorMatrix in="SourceAlpha" type="matrix" values="0 0 0 0 0 0 0 0 0 0 0 0 0 0 0 0 0 0 127 0" result="hardAlpha"/>
<feOffset dx="2" dy="3"/>
<feGaussianBlur stdDeviation="2"/>
<feComposite in2="hardAlpha" operator="out"/>
<feColorMatrix type="matrix" values="0 0 0 0 0 0 0 0 0 0 0 0 0 0 0 0 0 0 0.1 0"/>
<feBlend mode="normal" in2="BackgroundImageFix" result="effect1_dropShadow_59_2"/>
<feBlend mode="normal" in="SourceGraphic" in2="effect1_dropShadow_59_2" result="shape"/>
</filter>
<linearGradient id="paint0_linear_59_2" x1="17.8094" y1="29.5993" x2="29.3183" y2="15.0594" gradientUnits="userSpaceOnUse">
<stop stop-color="#00324B"/>
<stop offset="1" stop-color="#2FC781"/>
<stop offset="1" stop-color="#2FC781"/>
</linearGradient>
<linearGradient id="paint1_linear_59_2" x1="33.6561" y1="55.5526" x2="57.4283" y2="43.0999" gradientUnits="userSpaceOnUse">
<stop stop-color="#DBEFFF"/>
<stop offset="1" stop-color="#CFFCFC"/>
<stop offset="1" stop-color="#CFFCFC"/>
</linearGradient>
<linearGradient id="paint2_linear_59_2" x1="40.2516" y1="-6.49582" x2="12.6363" y2="14.6302" gradientUnits="userSpaceOnUse">
<stop stop-color="#2EC781"/>
<stop offset="1" stop-color="#0A68FF"/>
</linearGradient>
</defs>
</svg>
