<svg width="24" height="24" viewBox="0 0 24 24" fill="none" xmlns="http://www.w3.org/2000/svg">
<path d="M2 3.98172C2.00184 3.72208 2.10731 3.47357 2.29363 3.28989C2.47995 3.1062 2.73216 3.00207 2.99578 3H21.0803C21.6304 3 22.0761 3.43994 22.0761 3.98172V19.8137C22.0743 20.0734 21.9688 20.3219 21.7825 20.5056C21.5962 20.6893 21.344 20.7934 21.0803 20.7955H2.99578C2.73159 20.7952 2.47831 20.6916 2.29159 20.5076C2.10488 20.3235 2 20.0739 2 19.8137V3.98172ZM12.0381 4.97727V18.8182H20.0685V4.97727H12.0381ZM13.0419 6.95455H19.0647V8.93182H13.0419V6.95455ZM13.0419 9.92045H19.0647V11.8977H13.0419V9.92045Z"/>
</svg>
