<svg width="24" height="24" viewBox="0 0 24 24" fill="none" xmlns="http://www.w3.org/2000/svg">
<path d="M5.00012 15V17C4.99996 17.5046 5.19053 17.9906 5.53362 18.3605C5.87671 18.7305 6.34697 18.9572 6.85012 18.995L7.00012 19H10.0001V21H7.00012C5.93926 21 4.92184 20.5786 4.17169 19.8284C3.42155 19.0783 3.00012 18.0609 3.00012 17V15H5.00012ZM18.0001 10L22.4001 21H20.2451L19.0441 18H14.9541L13.7551 21H11.6011L16.0001 10H18.0001ZM17.0001 12.885L15.7531 16H18.2451L17.0001 12.885ZM8.00012 2V4H12.0001V11H8.00012V14H6.00012V11H2.00012V4H6.00012V2H8.00012ZM17.0001 3C18.061 3 19.0784 3.42143 19.8285 4.17157C20.5787 4.92172 21.0001 5.93913 21.0001 7V9H19.0001V7C19.0001 6.46957 18.7894 5.96086 18.4143 5.58579C18.0393 5.21071 17.5306 5 17.0001 5H14.0001V3H17.0001ZM6.00012 6H4.00012V9H6.00012V6ZM10.0001 6H8.00012V9H10.0001V6Z" fill="white"/>
</svg>
